<svg width="32" height="32" viewBox="0 0 32 32" fill="none" xmlns="http://www.w3.org/2000/svg">
<path d="M27.0398 4.57302C26.3757 4.18001 25.6182 3.97266 24.8465 3.97266C24.0748 3.97266 23.3173 4.18001 22.6532 4.57302L10.6665 11.7864V7.99969C10.6665 6.93882 10.2451 5.92141 9.49493 5.17126C8.74479 4.42112 7.72737 3.99969 6.6665 3.99969C5.60564 3.99969 4.58822 4.42112 3.83808 5.17126C3.08793 5.92141 2.6665 6.93882 2.6665 7.99969V23.9997C2.6665 25.0606 3.08793 26.078 3.83808 26.8281C4.58822 27.5783 5.60564 27.9997 6.6665 27.9997C7.72737 27.9997 8.74479 27.5783 9.49493 26.8281C10.2451 26.078 10.6665 25.0606 10.6665 23.9997V20.213L22.6665 27.373C23.3429 27.7803 24.117 27.9968 24.9065 27.9997C25.6598 27.999 26.3998 27.8014 27.0532 27.4264C27.7602 27.0279 28.3465 26.4459 28.7501 25.7418C29.1538 25.0378 29.3598 24.2378 29.3465 23.4264V8.55969C29.3561 7.74915 29.1469 6.95104 28.7409 6.24942C28.335 5.54781 27.7473 4.96867 27.0398 4.57302ZM7.99984 23.9997C7.99984 24.3533 7.85936 24.6925 7.60931 24.9425C7.35926 25.1925 7.02013 25.333 6.6665 25.333C6.31288 25.333 5.97374 25.1925 5.7237 24.9425C5.47365 24.6925 5.33317 24.3533 5.33317 23.9997V7.99969C5.33317 7.64607 5.47365 7.30693 5.7237 7.05688C5.97374 6.80683 6.31288 6.66636 6.6665 6.66636C7.02013 6.66636 7.35926 6.80683 7.60931 7.05688C7.85936 7.30693 7.99984 7.64607 7.99984 7.99969V23.9997ZM26.6665 23.4397C26.6741 23.7771 26.5901 24.1103 26.4234 24.4038C26.2567 24.6973 26.0136 24.9401 25.7198 25.1064C25.4628 25.263 25.1675 25.3458 24.8665 25.3458C24.5655 25.3458 24.2702 25.263 24.0132 25.1064L11.5732 17.6397C11.2949 17.466 11.0654 17.2243 10.9062 16.9374C10.7471 16.6504 10.6636 16.3278 10.6636 15.9997C10.6636 15.6716 10.7471 15.3489 10.9062 15.062C11.0654 14.7751 11.2949 14.5334 11.5732 14.3597L23.9998 6.91969C24.267 6.75095 24.5772 6.66298 24.8932 6.66636C25.1834 6.67094 25.4678 6.74891 25.7198 6.89302C26.0136 7.05929 26.2567 7.30208 26.4234 7.59557C26.5901 7.88906 26.6741 8.22225 26.6665 8.55969V23.4397Z" fill="#0061FF"/>
</svg>
