<svg width="32" height="32" viewBox="0 0 32 32" fill="none" xmlns="http://www.w3.org/2000/svg">
<path d="M28 18.6667C27.6464 18.6667 27.3072 18.8071 27.0572 19.0572C26.8071 19.3072 26.6666 19.6464 26.6666 20L26.6666 24.7867L20.5866 18.6667C20.4623 18.5376 20.3131 18.435 20.1482 18.3649C19.9833 18.2948 19.8059 18.2586 19.6266 18.2586C19.4474 18.2586 19.27 18.2948 19.1051 18.3649C18.9401 18.435 18.791 18.5376 18.6666 18.6667C18.4183 18.9165 18.2789 19.2544 18.2789 19.6067C18.2789 19.9589 18.4183 20.2968 18.6666 20.5467L24.7866 26.6667L20 26.6667C19.6464 26.6667 19.3072 26.8071 19.0572 27.0572C18.8071 27.3072 18.6666 27.6464 18.6666 28C18.6666 28.3536 18.8071 28.6927 19.0572 28.9428C19.3072 29.1928 19.6464 29.3333 20 29.3333L28 29.3333C28.1742 29.3312 28.3464 29.295 28.5066 29.2267C28.8324 29.0914 29.0913 28.8325 29.2266 28.5067C29.295 28.3464 29.3312 28.1742 29.3333 28L29.3333 20C29.3333 19.6464 29.1928 19.3072 28.9428 19.0572C28.6927 18.8071 28.3536 18.6667 28 18.6667ZM11.6 13.3333C11.855 13.5518 12.1831 13.6659 12.5187 13.6529C12.8543 13.64 13.1726 13.5009 13.4101 13.2634C13.6475 13.0259 13.7866 12.7076 13.7996 12.3721C13.8126 12.0365 13.6984 11.7084 13.48 11.4533L5.11998 3.07999C4.99539 2.95642 4.84764 2.85865 4.68519 2.7923C4.52274 2.72594 4.34879 2.69231 4.17331 2.69333C3.99783 2.69231 3.82389 2.72594 3.66144 2.7923C3.49899 2.85865 3.35123 2.95642 3.22665 3.07999C3.10167 3.20394 3.00248 3.35141 2.93479 3.51389C2.8671 3.67637 2.83225 3.85064 2.83225 4.02666C2.83225 4.20267 2.8671 4.37695 2.93479 4.53943C3.00248 4.70191 3.10167 4.84937 3.22665 4.97332L11.6 13.3333ZM20 5.33332L24.7866 5.33332L3.05332 27.0533C2.80224 27.3044 2.66119 27.6449 2.66119 28C2.66119 28.3551 2.80224 28.6956 3.05332 28.9467C3.30439 29.1977 3.64491 29.3388 3.99998 29.3388C4.35505 29.3388 4.69558 29.1977 4.94665 28.9467L26.6666 7.21332L26.6666 12C26.6666 12.3536 26.8071 12.6927 27.0572 12.9428C27.3072 13.1928 27.6464 13.3333 28 13.3333C28.3536 13.3333 28.6927 13.1928 28.9428 12.9428C29.1928 12.6927 29.3333 12.3536 29.3333 12L29.3333 3.99999C29.3312 3.82575 29.295 3.65362 29.2266 3.49332C29.0913 3.16752 28.8324 2.90862 28.5066 2.77332C28.3463 2.705 28.1742 2.66876 28 2.66666L20 2.66666C19.6464 2.66666 19.3072 2.80713 19.0572 3.05718C18.8071 3.30723 18.6666 3.64637 18.6666 3.99999C18.6666 4.35361 18.8071 4.69275 19.0572 4.9428C19.3072 5.19285 19.6464 5.33332 20 5.33332Z" fill="#0061FF"/>
</svg>
