<svg width="32" height="32" viewBox="0 0 32 32" fill="none" xmlns="http://www.w3.org/2000/svg">
<path d="M25.3338 4C24.2729 4 23.2555 4.42143 22.5054 5.17157C21.7552 5.92172 21.3338 6.93913 21.3338 8V11.7867L9.33378 4.62667C8.67061 4.2309 7.91272 4.02195 7.14044 4.02195C6.36817 4.02195 5.61028 4.2309 4.94711 4.62667C4.25256 5.02137 3.6754 5.59361 3.27477 6.28476C2.87414 6.97591 2.66442 7.76113 2.66711 8.56V23.44C2.65379 24.2515 2.85984 25.0514 3.2635 25.7555C3.66716 26.4595 4.25344 27.0415 4.96044 27.44C5.61505 27.8104 6.35501 28.0034 7.10711 28C7.89213 27.9947 8.66125 27.7783 9.33378 27.3733L21.3338 20.2133V24C21.3338 25.0609 21.7552 26.0783 22.5054 26.8284C23.2555 27.5786 24.2729 28 25.3338 28C26.3946 28 27.4121 27.5786 28.1622 26.8284C28.9124 26.0783 29.3338 25.0609 29.3338 24V8C29.3338 6.93913 28.9124 5.92172 28.1622 5.17157C27.4121 4.42143 26.3946 4 25.3338 4ZM20.4271 17.64L8.00044 25.08C7.74337 25.2366 7.44814 25.3195 7.14711 25.3195C6.84608 25.3195 6.55085 25.2366 6.29378 25.08C6.00158 24.9176 5.75834 24.6798 5.58947 24.3913C5.42059 24.1028 5.33229 23.7743 5.33378 23.44V8.56C5.32615 8.22256 5.41015 7.88937 5.57686 7.59588C5.74356 7.30239 5.98671 7.0596 6.28044 6.89333C6.53246 6.74923 6.81684 6.67125 7.10711 6.66667C7.42308 6.66329 7.73329 6.75126 8.00044 6.92L20.4404 14.36C20.7187 14.5337 20.9483 14.7754 21.1074 15.0623C21.2665 15.3492 21.35 15.6719 21.35 16C21.35 16.3281 21.2665 16.6508 21.1074 16.9377C20.9483 17.2246 20.7187 17.4663 20.4404 17.64H20.4271ZM26.6671 24C26.6671 24.3536 26.5266 24.6928 26.2766 24.9428C26.0265 25.1929 25.6874 25.3333 25.3338 25.3333C24.9802 25.3333 24.641 25.1929 24.391 24.9428C24.1409 24.6928 24.0004 24.3536 24.0004 24V8C24.0004 7.64638 24.1409 7.30724 24.391 7.05719C24.641 6.80714 24.9802 6.66667 25.3338 6.66667C25.6874 6.66667 26.0265 6.80714 26.2766 7.05719C26.5266 7.30724 26.6671 7.64638 26.6671 8V24Z" fill="#0061FF"/>
</svg>
