<svg width="32" height="32" viewBox="0 0 32 32" fill="none" xmlns="http://www.w3.org/2000/svg">
<path d="M7.33333 23.3333H5.33333V8.66668H15.7333L14.6667 9.72001C14.4156 9.96931 14.2738 10.3081 14.2726 10.662C14.2713 11.0158 14.4107 11.3556 14.66 11.6067C14.9093 11.8577 15.2481 11.9995 15.602 12.0008C15.9558 12.002 16.2956 11.8626 16.5467 11.6133L19.88 8.28001C20.005 8.15606 20.1042 8.00859 20.1719 7.84611C20.2395 7.68363 20.2744 7.50936 20.2744 7.33334C20.2744 7.15733 20.2395 6.98305 20.1719 6.82057C20.1042 6.65809 20.005 6.51063 19.88 6.38668L16.5467 3.05334C16.2968 2.80501 15.9589 2.66562 15.6067 2.66562C15.2544 2.66562 14.9165 2.80501 14.6667 3.05334C14.5417 3.17729 14.4425 3.32476 14.3748 3.48724C14.3071 3.64972 14.2723 3.82399 14.2723 4.00001C14.2723 4.17603 14.3071 4.3503 14.3748 4.51278C14.4425 4.67526 14.5417 4.82273 14.6667 4.94668L15.72 6.00001H4C3.64638 6.00001 3.30724 6.14049 3.05719 6.39053C2.80714 6.64058 2.66666 6.97972 2.66666 7.33334V24.6667C2.66666 25.0203 2.80714 25.3594 3.05719 25.6095C3.30724 25.8595 3.64638 26 4 26H7.33333C7.68695 26 8.02609 25.8595 8.27614 25.6095C8.52619 25.3594 8.66666 25.0203 8.66666 24.6667C8.66666 24.3131 8.52619 23.9739 8.27614 23.7239C8.02609 23.4738 7.68695 23.3333 7.33333 23.3333ZM28 6.00001H24.6667C24.313 6.00001 23.9739 6.14049 23.7239 6.39053C23.4738 6.64058 23.3333 6.97972 23.3333 7.33334C23.3333 7.68696 23.4738 8.0261 23.7239 8.27615C23.9739 8.5262 24.313 8.66668 24.6667 8.66668H26.6667V23.3333H15.5067L16.56 22.28C16.685 22.1561 16.7842 22.0086 16.8519 21.8461C16.9195 21.6836 16.9544 21.5094 16.9544 21.3333C16.9544 21.1573 16.9195 20.9831 16.8519 20.8206C16.7842 20.6581 16.685 20.5106 16.56 20.3867C16.3102 20.1383 15.9722 19.999 15.62 19.999C15.2678 19.999 14.9298 20.1383 14.68 20.3867L11.3467 23.72C11.2217 23.844 11.1225 23.9914 11.0548 24.1539C10.9871 24.3164 10.9523 24.4907 10.9523 24.6667C10.9523 24.8427 10.9871 25.017 11.0548 25.1794C11.1225 25.3419 11.2217 25.4894 11.3467 25.6133L14.68 28.9467C14.9311 29.196 15.2709 29.3353 15.6247 29.3341C15.9785 29.3328 16.3174 29.1911 16.5667 28.94C16.816 28.6889 16.9553 28.3491 16.9541 27.9953C16.9528 27.6415 16.8111 27.3026 16.56 27.0533L15.5067 26H28C28.3536 26 28.6928 25.8595 28.9428 25.6095C29.1929 25.3594 29.3333 25.0203 29.3333 24.6667V7.33334C29.3333 6.97972 29.1929 6.64058 28.9428 6.39053C28.6928 6.14049 28.3536 6.00001 28 6.00001Z" fill="#0061FF"/>
</svg>
